<svg width="24" height="24" viewBox="0 0 24 24" fill="none" xmlns="http://www.w3.org/2000/svg">
<path d="M21.2036 13.3391C21.4027 13.2393 21.5701 13.0862 21.687 12.8967C21.804 12.7072 21.866 12.489 21.866 12.2663C21.866 12.0437 21.804 11.8254 21.687 11.6359C21.5701 11.4465 21.4027 11.2933 21.2036 11.1935L4.40365 2.79351C4.19535 2.68929 3.96121 2.64793 3.7298 2.6745C3.4984 2.70107 3.27973 2.79442 3.10047 2.94314C2.9212 3.09187 2.7891 3.28955 2.72028 3.51208C2.65145 3.7346 2.64887 3.97235 2.71285 4.19631L4.42765 10.1963C4.49938 10.4471 4.65086 10.6677 4.85915 10.8246C5.06745 10.9816 5.32122 11.0665 5.58205 11.0663L11.0672 11.0663C11.3855 11.0663 11.6907 11.1927 11.9158 11.4178C12.1408 11.6428 12.2672 11.9481 12.2672 12.2663C12.2672 12.5846 12.1408 12.8898 11.9158 13.1148C11.6907 13.3399 11.3855 13.4663 11.0672 13.4663L5.58205 13.4663C5.32122 13.4662 5.06745 13.551 4.85915 13.708C4.65086 13.865 4.49938 14.0855 4.42765 14.3363L2.71405 20.3363C2.64994 20.5602 2.65236 20.7979 2.72103 21.0205C2.7897 21.243 2.92163 21.4407 3.10076 21.5896C3.27988 21.7384 3.49844 21.8319 3.72979 21.8587C3.96114 21.8855 4.19528 21.8443 4.40365 21.7403L21.2036 13.3403L21.2036 13.3391Z" fill="#9F1239"/>
</svg>
